# 3ds Max Wavefront OBJ Exporter v0.97b - (c)2007 guruware
# File Created: 28.05.2021 22:57:46

mtllib pillar.mtl

#
# object Box001
#

v  -5.1857 0.0000 5.1385
v  -5.1857 0.0000 -6.3774
v  5.5659 0.0000 -6.3774
v  5.5659 0.0000 5.1385
v  -5.1857 48.2258 5.1385
v  5.5659 48.2258 5.1385
v  5.5659 48.2258 -6.3774
v  -5.1857 48.2258 -6.3774
v  5.5659 41.4118 5.1385
v  -5.1857 41.4118 5.1385
v  5.5659 41.4118 -6.3774
v  -5.1857 41.4118 -6.3774
v  4.9612 44.9905 4.5338
v  -4.5810 44.9905 4.5338
v  -4.5810 43.1815 4.5338
v  4.9612 43.1815 4.5338
v  4.9612 44.9905 -5.7727
v  4.9612 43.1815 -5.7727
v  -4.5810 44.9905 -5.7727
v  -4.5810 43.1815 -5.7727
v  6.8609 42.3915 6.4334
v  -6.4806 42.3915 6.4334
v  -6.4806 41.4118 6.4334
v  6.8609 41.4118 6.4334
v  6.8609 42.3915 -7.6723
v  6.8609 41.4118 -7.6723
v  -6.4806 42.3915 -7.6723
v  -6.4806 41.4118 -7.6723
v  6.2212 47.0360 5.7938
v  -5.8410 47.0360 5.7938
v  -5.8410 45.7805 5.7938
v  6.2212 45.7805 5.7938
v  6.2212 47.0360 -7.0327
v  6.2212 45.7805 -7.0327
v  -5.8410 47.0360 -7.0327
v  -5.8410 45.7805 -7.0327
v  5.5659 47.0360 5.1385
v  -5.1857 47.0360 5.1385
v  -5.1857 47.0360 -6.3774
v  5.5659 47.0360 -6.3774
v  -5.1857 45.7805 5.1385
v  5.5659 45.7805 5.1385
v  5.5659 45.7805 -6.3774
v  -5.1857 45.7805 -6.3774
v  -5.1857 42.3915 5.1385
v  5.5659 42.3915 5.1385
v  5.5659 42.3915 -6.3774
v  -5.1857 42.3915 -6.3774
# 48 vertices

vn 0.0000 -1.0000 -0.0000
vn 0.0000 1.0000 -0.0000
vn 0.0000 0.0000 1.0000
vn 1.0000 -0.0000 -0.0000
vn 0.0000 0.0000 -1.0000
vn -1.0000 -0.0000 0.0000
vn -1.0000 0.0000 0.0000
vn -1.0000 -0.0000 -0.0000
vn 1.0000 0.0000 -0.0000
vn -1.0000 0.0000 -0.0000
vn 1.0000 0.0000 0.0000
vn -0.0000 -0.0000 -1.0000
vn 0.0000 0.6078 0.7941
vn 0.7941 0.6078 -0.0000
vn 0.0000 0.6078 -0.7941
vn -0.7941 0.6078 0.0000
vn 0.0000 -0.6078 0.7941
vn -0.0000 -0.6078 0.7941
vn -0.7941 -0.6078 -0.0000
vn 0.0000 -0.6078 -0.7941
vn -0.0000 -0.6078 -0.7941
vn 0.7941 -0.6078 -0.0000
# 22 vertex normals

vt 0.4845 0.6111 0.0000
vt 0.6705 0.6111 0.0000
vt 0.6705 0.7847 0.0000
vt 0.4845 0.7847 0.0000
vt 0.8694 0.5433 0.0000
vt 0.8694 0.7169 0.0000
vt 0.6834 0.7169 0.0000
vt 0.6834 0.5433 0.0000
vt 0.8688 0.3509 0.0000
vt 0.1998 0.3509 0.0000
vt 0.1998 0.1772 0.0000
vt 0.8688 0.1772 0.0000
vt 0.8688 0.5395 0.0000
vt 0.1998 0.5395 0.0000
vt 0.1998 0.3535 0.0000
vt 0.8688 0.3535 0.0000
vt 0.8597 0.1747 0.0000
vt 0.1908 0.1747 0.0000
vt 0.1908 0.0010 0.0000
vt 0.8597 0.0010 0.0000
vt 0.1870 0.0055 0.0000
vt 0.1870 0.6745 0.0000
vt 0.0010 0.6745 0.0000
vt 0.0010 0.0055 0.0000
vt 0.6917 0.9703 0.0000
vt 0.6917 0.8161 0.0000
vt 0.7210 0.8161 0.0000
vt 0.7210 0.9703 0.0000
vt 0.0108 0.6916 0.0000
vt 0.1773 0.6916 0.0000
vt 0.1773 0.7208 0.0000
vt 0.0108 0.7208 0.0000
vt 0.7675 0.9703 0.0000
vt 0.7675 0.8161 0.0000
vt 0.7967 0.8161 0.0000
vt 0.7967 0.9703 0.0000
vt 0.2096 0.6735 0.0000
vt 0.3761 0.6735 0.0000
vt 0.3761 0.7027 0.0000
vt 0.2096 0.7027 0.0000
vt 0.4153 0.6133 0.0000
vt 0.1998 0.6133 0.0000
vt 0.1998 0.5975 0.0000
vt 0.4153 0.5975 0.0000
vt 0.4277 0.5772 0.0000
vt 0.1998 0.5772 0.0000
vt 0.1998 0.5613 0.0000
vt 0.4277 0.5613 0.0000
vt 0.4153 0.5952 0.0000
vt 0.1998 0.5952 0.0000
vt 0.1998 0.5794 0.0000
vt 0.4153 0.5794 0.0000
vt 0.4277 0.5591 0.0000
vt 0.1998 0.5591 0.0000
vt 0.1998 0.5433 0.0000
vt 0.4277 0.5433 0.0000
vt 0.6342 0.5861 0.0000
vt 0.4393 0.5861 0.0000
vt 0.4393 0.5659 0.0000
vt 0.6342 0.5659 0.0000
vt 0.4070 0.6584 0.0000
vt 0.1998 0.6584 0.0000
vt 0.1998 0.6382 0.0000
vt 0.4070 0.6382 0.0000
vt 0.6342 0.5635 0.0000
vt 0.4393 0.5635 0.0000
vt 0.4393 0.5433 0.0000
vt 0.6342 0.5433 0.0000
vt 0.4070 0.6359 0.0000
vt 0.1998 0.6359 0.0000
vt 0.1998 0.6156 0.0000
vt 0.4070 0.6156 0.0000
vt 0.8495 0.8024 0.0000
vt 0.6759 0.8024 0.0000
vt 0.6653 0.7918 0.0000
vt 0.8601 0.7918 0.0000
vt 0.6759 0.9884 0.0000
vt 0.6653 0.9990 0.0000
vt 0.8495 0.9884 0.0000
vt 0.8601 0.9990 0.0000
vt 0.4770 0.9884 0.0000
vt 0.6507 0.9884 0.0000
vt 0.6613 0.9990 0.0000
vt 0.4664 0.9990 0.0000
vt 0.6507 0.8024 0.0000
vt 0.6613 0.7918 0.0000
vt 0.4770 0.8024 0.0000
vt 0.4664 0.7918 0.0000
vt 0.7337 0.8064 0.0000
vt 0.7337 0.9801 0.0000
vt 0.1870 0.7336 0.0000
vt 0.0010 0.7336 0.0000
vt 0.8095 0.8064 0.0000
vt 0.8095 0.9801 0.0000
vt 0.3859 0.7155 0.0000
vt 0.1998 0.7155 0.0000
vt 0.6790 0.9801 0.0000
vt 0.6790 0.8064 0.0000
vt 0.1998 0.6608 0.0000
vt 0.3859 0.6608 0.0000
vt 0.7547 0.9801 0.0000
vt 0.7547 0.8064 0.0000
vt 0.0010 0.6788 0.0000
vt 0.1870 0.6788 0.0000
vt 0.4429 0.9774 0.0000
vt 0.4429 0.8037 0.0000
vt 0.4638 0.7828 0.0000
vt 0.4638 0.9983 0.0000
vt 0.2569 0.8037 0.0000
vt 0.2360 0.7828 0.0000
vt 0.2569 0.9774 0.0000
vt 0.2360 0.9983 0.0000
vt 0.0264 0.8037 0.0000
vt 0.0264 0.9774 0.0000
vt 0.0055 0.9983 0.0000
vt 0.0055 0.7828 0.0000
vt 0.2125 0.9774 0.0000
vt 0.2334 0.9983 0.0000
vt 0.2125 0.8037 0.0000
vt 0.2334 0.7828 0.0000
vt 0.8296 0.8064 0.0000
vt 0.8296 0.9801 0.0000
vt 0.8104 0.9801 0.0000
vt 0.8104 0.8064 0.0000
vt 0.1870 0.7568 0.0000
vt 0.0010 0.7568 0.0000
vt 0.0010 0.7376 0.0000
vt 0.1870 0.7376 0.0000
vt 0.7538 0.8064 0.0000
vt 0.7538 0.9801 0.0000
vt 0.7346 0.9801 0.0000
vt 0.7346 0.8064 0.0000
vt 0.6118 0.6077 0.0000
vt 0.4258 0.6077 0.0000
vt 0.4258 0.5885 0.0000
vt 0.6118 0.5885 0.0000
# 136 texture coords

o Box001
g Box001
usemtl wire_115115115
s 2
f 1/1/1 2/2/1 3/3/1 
f 3/3/1 4/4/1 1/1/1 
s 4
f 5/5/2 6/6/2 7/7/2 
f 7/7/2 8/8/2 5/5/2 
s 8
f 4/9/3 9/10/3 10/11/3 
f 10/11/3 1/12/3 4/9/3 
s 16
f 3/13/4 11/14/4 9/15/4 
f 9/15/4 4/16/4 3/13/4 
s 32
f 2/17/5 12/18/5 11/19/5 
f 11/19/5 3/20/5 2/17/5 
s 64
f 1/21/6 10/22/7 12/23/6 
f 12/23/6 2/24/8 1/21/6 
s 8
f 13/25/3 14/26/3 15/27/3 
f 15/27/3 16/28/3 13/25/3 
s 16
f 17/29/9 13/30/9 16/31/9 
f 16/31/9 18/32/9 17/29/9 
s 32
f 19/33/5 17/34/5 18/35/5 
f 18/35/5 20/36/5 19/33/5 
s 64
f 14/37/6 19/38/10 20/39/6 
f 20/39/6 15/40/6 14/37/6 
s 8
f 21/41/3 22/42/3 23/43/3 
f 23/43/3 24/44/3 21/41/3 
s 16
f 25/45/11 21/46/11 24/47/11 
f 24/47/11 26/48/9 25/45/11 
s 32
f 27/49/5 25/50/12 26/51/12 
f 26/51/12 28/52/5 27/49/5 
s 64
f 22/53/7 27/54/10 28/55/7 
f 28/55/7 23/56/7 22/53/7 
s 8
f 29/57/3 30/58/3 31/59/3 
f 31/59/3 32/60/3 29/57/3 
s 16
f 33/61/9 29/62/9 32/63/9 
f 32/63/9 34/64/9 33/61/9 
s 32
f 35/65/5 33/66/5 34/67/5 
f 34/67/5 36/68/5 35/65/5 
s 64
f 30/69/10 35/70/10 36/71/10 
f 36/71/10 31/72/10 30/69/10 
s off
f 37/73/2 38/74/2 30/75/2 
f 30/75/2 29/76/2 37/73/2 
f 38/74/2 39/77/2 35/78/2 
f 35/78/2 30/75/2 38/74/2 
f 39/77/2 40/79/2 33/80/2 
f 33/80/2 35/78/2 39/77/2 
f 40/79/2 37/73/2 29/76/2 
f 29/76/2 33/80/2 40/79/2 
f 41/81/1 42/82/1 32/83/1 
f 32/83/1 31/84/1 41/81/1 
f 42/82/1 43/85/1 34/86/1 
f 34/86/1 32/83/1 42/82/1 
f 43/85/1 44/87/1 36/88/1 
f 36/88/1 34/86/1 43/85/1 
f 44/87/1 41/81/1 31/84/1 
f 31/84/1 36/88/1 44/87/1 
f 45/89/13 46/90/13 16/28/13 
f 16/28/13 15/27/13 45/89/13 
f 46/91/14 47/92/14 18/32/14 
f 18/32/14 16/31/14 46/91/14 
f 47/93/15 48/94/15 20/36/15 
f 20/36/15 18/35/15 47/93/15 
f 48/95/16 45/96/16 15/40/16 
f 15/40/16 20/39/16 48/95/16 
f 42/97/17 41/98/17 14/26/17 
f 14/26/18 13/25/18 42/97/18 
f 41/99/19 44/100/19 19/38/19 
f 19/38/19 14/37/19 41/99/19 
f 44/101/20 43/102/20 17/34/20 
f 17/34/21 19/33/21 44/101/21 
f 43/103/22 42/104/22 13/30/22 
f 13/30/22 17/29/22 43/103/22 
f 46/105/2 45/106/2 22/107/2 
f 22/107/2 21/108/2 46/105/2 
f 45/106/2 48/109/2 27/110/2 
f 27/110/2 22/107/2 45/106/2 
f 48/109/2 47/111/2 25/112/2 
f 25/112/2 27/110/2 48/109/2 
f 47/111/2 46/105/2 21/108/2 
f 21/108/2 25/112/2 47/111/2 
f 10/113/1 9/114/1 24/115/1 
f 24/115/1 23/116/1 10/113/1 
f 9/114/1 11/117/1 26/118/1 
f 26/118/1 24/115/1 9/114/1 
f 11/117/1 12/119/1 28/120/1 
f 28/120/1 26/118/1 11/117/1 
f 12/119/1 10/113/1 23/116/1 
f 23/116/1 28/120/1 12/119/1 
f 38/121/3 37/122/3 6/123/3 
f 6/123/3 5/124/3 38/121/3 
f 37/125/9 40/126/9 7/127/9 
f 7/127/9 6/128/9 37/125/9 
f 40/129/5 39/130/5 8/131/5 
f 8/131/5 7/132/5 40/129/5 
f 39/133/10 38/134/10 5/135/10 
f 5/135/10 8/136/10 39/133/10 
# 92 faces

