# 3ds Max Wavefront OBJ Exporter v0.97b - (c)2007 guruware
# File Created: 16.02.2020 23:17:16

mtllib pillar1.mtl

#
# object Box001
#

v  -9.8425 0.0000 9.8425
v  -9.8425 0.0000 -9.8425
v  9.8425 0.0000 -9.8425
v  9.8425 0.0000 9.8425
v  9.8425 69.5507 9.8425
v  -9.8425 69.5507 9.8425
v  9.8425 69.5507 -9.8425
v  -9.8425 69.5507 -9.8425
v  -11.9749 69.7515 11.9749
v  11.9749 69.7515 11.9749
v  11.9749 73.2865 11.9749
v  -11.9749 73.2865 11.9749
v  11.9749 69.7515 -11.9749
v  11.9749 73.2865 -11.9749
v  -11.9749 69.7515 -11.9749
v  -11.9749 73.2865 -11.9749
v  -9.8425 73.4873 9.8425
v  9.8425 73.4873 9.8425
v  9.8425 77.4239 9.8425
v  -9.8425 77.4239 9.8425
v  9.8425 73.4873 -9.8425
v  9.8425 77.4239 -9.8425
v  -9.8425 73.4873 -9.8425
v  -9.8425 77.4239 -9.8425
v  -11.9749 77.6247 11.9749
v  11.9749 77.6247 11.9749
v  11.9749 81.1597 11.9749
v  -11.9749 81.1597 11.9749
v  11.9749 77.6247 -11.9749
v  11.9749 81.1597 -11.9749
v  -11.9749 77.6247 -11.9749
v  -11.9749 81.1597 -11.9749
v  -9.8425 81.3605 9.8425
v  9.8425 81.3605 9.8425
v  9.8425 85.2971 9.8425
v  -9.8425 85.2971 9.8425
v  9.8425 81.3605 -9.8425
v  9.8425 85.2971 -9.8425
v  -9.8425 81.3605 -9.8425
v  -9.8425 85.2971 -9.8425
v  0.0000 99.6774 -0.0000
# 41 vertices

vn 0.0000 -1.0000 -0.0000
vn 0.0000 0.0000 1.0000
vn 1.0000 0.0000 -0.0000
vn 0.0000 0.0000 -1.0000
vn -1.0000 0.0000 -0.0000
vn -0.5863 -0.5591 0.5863
vn 0.5863 -0.5591 0.5863
vn 0.5863 0.5591 0.5863
vn -0.5863 0.5591 0.5863
vn 0.5863 -0.5591 -0.5863
vn 0.5863 0.5591 -0.5863
vn -0.5863 -0.5591 -0.5863
vn -0.5863 0.5591 -0.5863
vn -0.3362 0.8797 0.3362
vn 0.3362 0.8797 0.3362
vn 0.3362 -0.8797 0.3362
vn -0.3362 -0.8797 0.3362
vn 0.3362 0.8797 -0.3362
vn 0.3362 -0.8797 -0.3362
vn -0.3362 0.8797 -0.3362
vn -0.3362 -0.8797 -0.3362
vn 0.6683 0.3266 0.6683
vn -0.6683 0.3266 0.6683
vn 0.6683 0.3266 -0.6683
vn -0.6683 0.3266 -0.6683
vn -0.0470 -0.9978 0.0470
vn 0.0470 -0.9978 0.0470
vn 0.0470 -0.9978 -0.0470
vn -0.0470 -0.9978 -0.0470
vn 0.0000 1.0000 -0.0000
# 30 vertex normals

vt 1.0000 0.0000 0.0000
vt 1.0000 1.0000 0.0000
vt 0.0000 1.0000 0.0000
vt 0.0000 0.0000 0.0000
vt 0.5000 0.5000 0.0000
# 5 texture coords

o Box001
g Box001
usemtl wire_229154215
s 2
f 1/1/1 2/2/1 3/3/1 4/4/1 
s 8
f 1/4/2 4/1/2 5/2/2 6/3/2 
s 16
f 4/4/3 3/1/3 7/2/3 5/3/3 
s 32
f 3/4/4 2/1/4 8/2/4 7/3/4 
s 64
f 2/4/5 1/1/5 6/2/5 8/3/5 
s off
f 9/4/6 10/1/7 11/1/8 12/4/9 
f 10/1/7 13/2/10 14/2/11 11/1/8 
f 13/2/10 15/3/12 16/3/13 14/2/11 
f 15/3/12 9/4/6 12/4/9 16/3/13 
f 17/4/14 18/1/15 19/1/16 20/4/17 
f 18/1/15 21/2/18 22/2/19 19/1/16 
f 21/2/18 23/3/20 24/3/21 22/2/19 
f 23/3/20 17/4/14 20/4/17 24/3/21 
f 25/4/6 26/1/7 27/1/8 28/4/9 
f 26/1/7 29/2/10 30/2/11 27/1/8 
f 29/2/10 31/3/12 32/3/13 30/2/11 
f 31/3/12 25/4/6 28/4/9 32/3/13 
f 33/4/14 34/1/15 35/1/22 36/4/23 
f 34/1/15 37/2/18 38/2/24 35/1/22 
f 37/2/18 39/3/20 40/3/25 38/2/24 
f 39/3/20 33/4/14 36/4/23 40/3/25 
f 6/4/26 5/1/27 10/1/7 9/4/6 
f 5/1/27 7/2/28 13/2/10 10/1/7 
f 7/2/28 8/3/29 15/3/12 13/2/10 
f 8/3/29 6/4/26 9/4/6 15/3/12 
f 18/1/15 17/4/14 12/4/9 11/1/8 
f 17/4/14 23/3/20 16/3/13 12/4/9 
f 23/3/20 21/2/18 14/2/11 16/3/13 
f 21/2/18 18/1/15 11/1/8 14/2/11 
f 20/4/17 19/1/16 26/1/7 25/4/6 
f 19/1/16 22/2/19 29/2/10 26/1/7 
f 22/2/19 24/3/21 31/3/12 29/2/10 
f 24/3/21 20/4/17 25/4/6 31/3/12 
f 34/1/15 33/4/14 28/4/9 27/1/8 
f 33/4/14 39/3/20 32/3/13 28/4/9 
f 39/3/20 37/2/18 30/2/11 32/3/13 
f 37/2/18 34/1/15 27/1/8 30/2/11 
f 36/4/23 35/1/22 41/5/30 
f 35/1/22 38/2/24 41/5/30 
f 38/2/24 40/3/25 41/5/30 
f 40/3/25 36/4/23 41/5/30 
# 37 polygons - 4 triangles

